<?xml version="1.0" encoding="UTF-8"?>
<svg id="_레이어_1" data-name="레이어 1" xmlns="http://www.w3.org/2000/svg" viewBox="0 0 141.73 141.73">
  <defs>
    <style>
      .cls-1 {
        fill: #fff;
      }
    </style>
  </defs>
  <path class="cls-1" d="m92.74,66.83c-.51,3.26-2.32,5.9-4.22,8.45-.95,1.27-1.9,2.55-3.32,3.46-.79.51-.97,1.77-1.8,2.44-.39.31-.69.67-1.2.9-2.92,1.32-5.8,2.75-8.69,4.12-3.24,1.54-6.46,2.02-9.9,2.07-.51,0-.84-.21-1.24-.38-.52-.34-1.05-.61-1.6-.06-1.38.22-2.72.18-3.97-.53-.71-.4-1.55.07-2.26-.37-1.61-1-3.32-1.78-5.12-2.36-1.99-.64-3.07-2.39-4.5-3.71-.8-.74-1.53-1.53-2.46-2.16-1.05-.72-1.77-1.84-2.39-2.99-.89-1.66-1.65-3.4-2.73-4.97-.14-.2-.28-.44-.31-.68-.33-3.58-1.86-6.93-1.99-10.56-.06-1.61.75-2.98.89-4.51.21-2.22,1.25-4.31,1.07-6.59.07-.17.15-.33.22-.5.49-.58.71-1.36,1.41-1.81.45-.29.61-.82.67-1.36.21-1.9,1.21-3.26,2.83-4.25.49-.3,1.08-.7,1.25-1.18.81-2.3,2.83-3.45,4.54-4.85,2.1-1.72,4.56-2.92,7.02-4.08.22-.11.51-.08.76-.11.93.02,1.9.35,2.76-.3.75-.37,1.44-.88,2.33-.87.77.04,1.54.16,2.3.09,1.19-.11,2.45.26,3.58-.41.13-.02.26-.04.39-.05.79.12,1.58.13,2.38,0,.57-.05.95.59,1.56.45.74.49,1.56.34,2.37.29,1.02.32,1.99.73,3.07.94,1,.19,1.99.63,2.88,1.34,1.33,1.06,2.88,1.85,4.33,2.76,2.08,1.3,3.51,3.2,4.79,5.23.2.32.26.67.58.97,1.23,1.13,2.35,2.34,2.38,4.2,0,.47.52.87.8,1.28,1.51,2.2,1.68,4.67,1.65,7.2-.15.25-.05.4.19.49.02.44.28.76.5,1.1-.09.23-.05.41.18.52-.2,2.61.2,5.28-1.16,7.75-.49.89-.47,2.05-.69,3.09-.17.13-.28.27-.14.48Zm-45.31-1.59c.91,2.52,2.04,4.89,4.19,6.63.45.36.94.78,1.17,1.28.25.54.69.76,1.11.94,1.03.43,1.98.89,2.43,2.01.03.08.37.04.56.06.63.3,1.31.33,1.99.32.76.16,1.45.7,2.3.42.53.1,1.07.17,1.6,0,.38-.01.76-.02,1.14-.03,1.09-.04,2.19-.29,3.28.03.26.08.48-.14.67-.32.58-.43,1.16-.86,1.93-.85.57.09,1.15.22,1.6-.31,1.25-.19,2.24-.76,3.03-1.77.83-1.06,1.97-1.82,3.09-2.53.34-.22.7-.4.81-.74.46-1.45,1.65-2.41,2.43-3.64.38-.59.64-1.2.88-1.87.42-1.2.31-2.55,1.06-3.63.28,0,.37-.13.31-.39.24-1.31.2-2.66.38-3.98.15-1.14-.33-2.47-.35-3.74.12-.26.03-.42-.23-.5-1.1-1.41-1.58-3.15-2.37-4.72-.81-1.61-1.75-2.96-3.32-3.78-1.21-.63-1.94-1.92-3.25-2.34-1.78-.58-3.47-1.58-5.46-1.34-.17.02-.41,0-.53-.11-1.12-.98-2.31-.55-3.47-.17-.54.18-1.03.49-1.64.4-.94-.05-1.9-.25-2.76.33-1.24.31-2.34.86-3.4,1.61-1.46,1.03-2.73,2.28-4.21,3.3-1.42.99-2.35,2.65-3.64,3.89-.21.2-.39.58-.36.85.1.96-.49,1.69-.76,2.52-.66,2.02-1.02,4.06-1.03,6.21-.01,1.89.72,3.63.81,5.48-.21.18-.16.34.03.49Z"/>
  <path class="cls-1" d="m101.13,113c-1.51-.63-3.03-1.26-4.54-1.9-.8-.34-1.32-1-1.75-1.7-.6-.99-1.25-1.96-2.13-2.71-1.61-1.36-2.34-3.35-3.65-4.94-1.05-1.28-2.24-2.46-3.24-3.8-1.27-1.69-2.11-3.7-3.77-5.1-1.4-3.43.35-8.93,5.2-9.17,1.77-.09,3.48.51,4.41,2.25.56,1.05,1.38,1.84,2.13,2.72,1.2,1.42,2.29,2.94,3.39,4.43.9,1.22,1.78,2.41,2.94,3.45,1.86,1.67,3.33,3.71,4.54,5.92.23.42.39.86.85,1.22,3.67,2.85,1.89,7.28-1.02,8.86-.31.17-.68.32-1.02.47-.78,0-1.57,0-2.35,0Z"/>
</svg>