<?xml version="1.0" encoding="UTF-8"?>
<svg id="_레이어_1" data-name="레이어 1" xmlns="http://www.w3.org/2000/svg" viewBox="0 0 141.73 141.73">
  <defs>
    <style>
      .cls-1 {
        fill: #1dc078;
      }
    </style>
  </defs>
  <path class="cls-1" d="m48.94,116.18c-.58.09-1.16.18-1.67-.25-.53-.45-1.19-.41-1.82-.47-1.18-.43-2.89-.37-3.97.14,0,0-.05.01-.05.01-.83.02-1.66.05-2.49.07-1.24-.22-2.07-.98-2.65-2.12-.77-1.5-1.38-3.05-1.33-4.79.04-1.54-.65-2.97-.5-4.54.08-.85.07-1.69.65-2.38.28-.14.44-.34.34-.68.04-.92-.08-1.84-.05-2.76.04-1.46.37-2.73,1.28-3.84.27-.33.47-.7.43-1.17-.14-1.77.73-3.14,1.68-4.47.45-.64.71-1.33.88-2.14.23-1.09.86-2.01,1.74-2.81,1.09-.99,2.42-1.63,3.44-2.7.23-.25.56-.45.88-.54,1.61-.47,3.23-.9,4.85-1.35.61.09,1.22.09,1.82-.03.51.08.95.07,1.47-.18.86-.41,1.79-.76,2.78-.53,1.04.43,2.06.98,3.24.63.48.26.95.52,1.43.78.75.61,1.63.25,2.45.37.28.51.77.21,1.16.31.67.54,1.44.25,2.17.27.83,0,1.65,0,2.48-.01.25.11.49.08.73-.04.35-.01.69-.02,1.04-.03.37,0,.74,0,1.1.01,1.51.34,2.88-.26,4.17-.9,1.18-.58,2.36-1.02,3.65-1.04,1.29-.01,2.37-.86,3.71-.84,1.13.02,2.19.4,3.29.4.65,0,1.3-.07,1.95-.1.71,0,1.42,0,2.13,0,0,0,.02.03.02.03,0,.27.12.39.39.31,1.83.53,3.74.82,5.15,2.41.61.68,1.44,1.2,2.25,1.63,1.05.55,1.76,1.36,2.33,2.41.99,1.84,2.01,3.63,2.37,5.78.2,1.17,1.31,1.99,1.56,3.21.05.23.27.48.23.67-.6,2.56,1.14,4.64,1.32,7.04.12,1.64,1.03,3.1,1.09,4.74.07,2.21-.16,4.46-1.5,6.24-1.17,1.54-2.72,2.74-4.61,3.31-.15.05-.28.18-.42.27-.93.04-1.86.09-2.8.13-.72-.24-1.44-.49-2.16-.73-.83-.12-1.67-.54-2.5.02-.57.07-1.06.34-1.49.73-1.76.06-3.53.13-5.29.19-.34-.03-.68-.06-1.02-.09-.28-.56-.8-.37-1.23-.37-1.03.01-2.07.08-3.1.12-.11-.03-.22-.06-.33-.09-1-.65-1.97-.46-2.92.11-.94,0-1.88.01-2.82.02-.85-.51-1.7-.5-2.53.06,0,0-.05.01-.05.01-1.18.04-2.36.08-3.54.12-.22-.03-.43-.06-.65-.09-.04-.22-.13-.38-.39-.3,0,0-.05-.01-.05-.01-1.9-.51-3.8-.52-5.69.08,0,0-.05,0-.05,0-.58.01-1.16.03-1.74.04-.11-.04-.22-.07-.33-.08-.99-.57-1.95-.45-2.9.1,0,0-.05.01-.05.01-.59-.07-1.17-.06-1.76.07-.83-.29-1.65-.61-2.55-.39-.57.02-1.14.04-1.71.05,0,0-.05-.01-.05-.01-.96-.54-1.93-.66-2.89.01Z"/>
  <path class="cls-1" d="m90.8,50.2c-.1-.35-.29-.72-.26-1.05.22-1.93.05-3.84-.3-5.74-.09-.13-.18-.26-.27-.39-.08-.09-.11-.21-.1-.33-.05-.08-.11-.16-.15-.25-.01-.03.04-.09.06-.14-.07-.42-.09-.86-.2-1.27-.27-.97-.3-2.25-1.05-2.79-1.17-.83-1.7-2.11-2.61-3.1-.57-.62-1.18-1.19-1.81-1.74-1.94-1.68-4.32-2.22-6.62-2.93-1.59-.49-3.24-.73-4.87-1.08-1.54,0-3.08.08-4.61-.17-1.03.31-2.1-.03-3.13.18-.55.88-1.41.62-2.19.65,0,0-.05.01-.05.01-.65.53-1.43.17-2.13.34-1.22,1.46-3.01,2.37-3.86,4.21-.08.17-.41.21-.6.35-1.13.81-2,1.97-2.54,3.19-.85,1.92-1.32,4.01-1.96,6.03l-.21,1.57c.28.9-.75,1.56-.4,2.47.79.62.42,1.29.09,1.97-.1,2.65.37,5.22.89,7.8.49,2.41,1.41,4.54,2.81,6.52.42.6,1.01,1.03,1.35,1.67,1.25,2.35,3.35,3.73,5.37,5.22,1.78,1.31,3.81,1.95,5.87,2.52.97-.05,1.96-.32,2.85.32,0,0,.05.02.05.02,1.67-.11,3.37.31,5.02-.26,1.66-.29,3.22-.99,4.62-1.88,1.36-.87,2.78-1.64,4.16-2.48.84-.51,1.97-.96,2.22-1.95.25-.99.73-1.81,1.27-2.51.65-.84,1.01-1.81,1.24-2.75.33-1.39.91-2.68,1.24-4.06-.11-.22-.05-.38.15-.49.13-2.03-.27-4.12.75-6.06.24-.46.08-1.08-.08-1.62Zm-15.58-4.21c.43-.47,1-.7,1.7-.7s1.24.23,1.7.7c.41.45.61,1,.61,1.65,0,.59-.2,1.12-.61,1.59-.45.51-1.02.76-1.7.76s-1.24-.25-1.7-.76c-.43-.47-.64-1-.64-1.59,0-.65.22-1.2.64-1.65Zm-11.16,0c.45-.47,1.03-.7,1.73-.7s1.23.23,1.66.7c.41.45.61,1,.61,1.65,0,.59-.2,1.12-.61,1.59-.43.51-.98.76-1.66.76s-1.25-.25-1.73-.76c-.43-.47-.64-1-.64-1.59,0-.65.22-1.2.64-1.65Zm20.91,9.21c-1.54,1.05-3.64,1.85-6.29,2.38-2.18.44-4.53.67-7.06.67-2.3,0-4.64-.25-7.03-.75-2.67-.57-4.81-1.34-6.41-2.3-.45-.3-.7-.64-.74-1.03-.06-.33.03-.67.28-1,.25-.3.54-.51.86-.64.37-.15.67-.14.89.03,1.11.68,2.79,1.35,5.06,2,2.59.72,4.95,1.08,7.09,1.08,2.34,0,4.58-.27,6.72-.8,2.14-.54,3.99-1.29,5.55-2.25.25-.15.52-.16.83-.03.29.15.51.37.68.67.2.33.28.66.22,1-.04.37-.26.69-.65.97Z"/>
</svg>