<?xml version="1.0" encoding="UTF-8"?>
<svg id="_레이어_1" data-name="레이어 1" xmlns="http://www.w3.org/2000/svg" viewBox="0 0 186.25 107.26">
  <defs>
    <style>
      .cls-1 {
        fill: #fff;
      }
    </style>
  </defs>
  <path class="cls-1" d="m171.71,84.9c-.28.09-.61.05-.77.38-.08.05-.16.1-.24.14-.14.06-.29.12-.39.24-.1,0-.15.06-.2.14h-.04s-.02.02-.02.02c-.07-.01-.11.02-.14.08-.32.02-.61.13-.88.29-.33,0-.66-.03-.97.11h-.03s-.01.02-.01.02c-.08-.01-.11.02-.13.09,0,0,0,0,0,0-.1,0-.15.06-.2.14h-.04s-.02.03-.02.03c-.07-.01-.11.02-.13.08-.13.02-.29-.06-.38.11-.3.13-.67-.12-.95.16-.06.05-.12.11-.18.16-.11-.02-.17.06-.24.11-.1-.01-.21-.05-.27.09-.28.12-.63-.13-.89.15-.08,0-.16.02-.25.02-.21,0-.42,0-.61.11-.05,0-.1.02-.15.03-.04-.02-.08-.02-.12,0-.34.11-.69.22-1.03.33-.28.1-.6-.07-.85.15-.52.21-1.03.42-1.55.63-.13,0-.25,0-.38.01-.09-.04-.18-.05-.26.01-.1-.02-.16.04-.21.11,0,0-.04.01-.04.01-.04-.01-.08-.01-.12,0-.11-.03-.21-.06-.26.08-.08.01-.16.03-.24.04-.14.05-.29.08-.39.21-.12.07-.31-.07-.38.13,0,0,0,0,0,0-.04,0-.08.02-.12.04-.08-.03-.12,0-.14.08-.16.01-.33,0-.49.04-.45.1-.93.03-1.36.24h-.04s-.01.03-.01.03c-.07,0-.1.02-.12.09-.1.01-.22-.03-.27.12-.16.04-.34,0-.46.15h-.03s-.01.02-.01.02c-.07-.01-.12.02-.14.09-.2.1-.45.08-.63.24-.04,0-.08.02-.11.04-.14-.01-.29-.09-.39.08-.09.03-.22,0-.26.14,0,0,0,0,0,0-.04,0-.08.02-.11.04-.04,0-.09,0-.13,0-.08-.02-.12.02-.14.09,0,0,0,0,0,0-.41.08-.85.03-1.22.28,0,0-.04.01-.04.01-.04-.01-.08-.01-.12,0-.04,0-.09,0-.13,0-.09-.02-.12.02-.13.1,0,0,0,0,0,0-.2.03-.42-.02-.58.15l-.03-.02s-.02.03-.02.03c-.35.04-.71,0-1.02.22,0,0,0,0,0,0-.04,0-.08.02-.11.04-.11-.02-.21-.06-.26.09-.09.03-.2.02-.23.14,0,0-.02.01-.02.01-.07,0-.12.04-.13.11-.25-.01-.41.2-.63.26-.29.01-.6-.12-.85.13h-.16c-.08,0-.12.03-.14.11,0,0,0,0,0,0-.12.06-.29-.02-.37.14-.04.01-.09.02-.13.03-.08,0-.16,0-.24,0-.04,0-.09,0-.13,0-.08-.02-.12.02-.13.1,0,0,0,0,0,0-.04,0-.08.02-.12.03-.21.08-.43.15-.64.23-.5.03-1.01-.06-1.5.12,0,0-.03.01-.03.01-.1,0-.22-.05-.26.1,0,0,0,0,0,0-.04,0-.08.02-.12.03-.12-.05-.17.09-.26.11-.18-.01-.38-.08-.52.1-.1,0-.21,0-.24.12-.4.19-.85-.03-1.25.14,0,0-.01,0-.01,0-.12,0-.23,0-.32.11l-.03-.02-.03.02c-.17,0-.34,0-.51,0-.14-.07-.26-.03-.39.03-.27.03-.54-.04-.8.08-.08-.04-.15-.04-.21.02-.34,0-.67,0-1.01,0-.23-.14-.5-.13-.75-.13-.22-.25-.5-.13-.77-.13-.08,0-.16,0-.24,0-.13-.22-.34-.11-.51-.1-.17-.17-.42-.23-.61-.25-.83-.11-1.41-.7-2.11-1.05-.09-.04-.16-.14-.22-.22-.55-.67-1.11-1.32-1.77-1.89-.16-.14-.22-.39-.4-.54.01-.06-.01-.09-.08-.08-.4-.32-.67-.7-.77-1.22-.05-.25-.21-.49-.34-.72-.14-.25-.27-.49-.3-.8-.02-.27-.16-.54-.33-.79-.36-.52-.65-1.07-.7-1.72.02-.08-.02-.12-.09-.15-.1-.42-.19-.83-.29-1.25.02-.08-.02-.12-.09-.15-.39-.52-.44-1.14-.54-1.75.02-.08-.03-.11-.1-.13-.2-.27-.06-.64-.25-.92,0,0,.02-.03.02-.03l-.04-.02c-.2-.81-.53-1.59-.52-2.44.02-.09-.04-.11-.1-.14-.14-.56-.47-1.04-.67-1.58-.25-.69-.53-1.36-.65-2.09.03-.08-.03-.1-.08-.12.1-1.07-.24-2.03-.7-2.96-.13-.25-.15-.56-.22-.84.03-.08-.02-.11-.08-.13-.25-.4-.46-.81-.56-1.27.03-.08-.03-.1-.08-.12,0-.13-.02-.26-.03-.38.03-.09-.03-.11-.1-.13-.21-.49-.07-1.03-.21-1.53.04-.06,0-.08-.05-.1-.48-.82-.48-1.73-.49-2.64,0-.25.19-.41.21-.64.01-.26.2-.52.05-.79.04-.13.05-.25,0-.38.06-.47.17-.93.37-1.37.06-.03.08-.07.06-.14.12-.69.36-1.34.57-2,.06-.18.18-.28.29-.39.34-.36.67-.69.84-1.2.14-.44.44-.83.62-1.28.08-.21.16-.42.23-.63.15-.52.35-1.01.78-1.37.13-.11.22-.27.25-.43.09-.45.29-.83.51-1.23.45-.81.65-1.71.82-2.61.05-.29.19-.58.35-.83.47-.68.85-1.41,1.21-2.14.19-.39.38-.77.81-.95.11-.05.21-.15.28-.25.28-.38.69-.5,1.12-.59.27,0,.55.11.8-.06.37.02.7.02,1.04-.23.31-.23.75-.18,1.14-.15.17.14.34.12.5-.02.28-.07.51-.27.81-.28.08,0,.16,0,.24,0,.22,0,.4.21.64.13.12,0,.25,0,.37,0,.38.1.77.12,1.15,0,.21.04.4,0,.59-.1.06,0,.11-.02.17-.02.11.02.21.04.27-.09.13,0,.26,0,.37-.06.16,0,.32,0,.49,0,.17.07.35.07.52,0,.11.03.2.04.25-.09.6-.18,1.2-.43,1.8-.56.9-.2,1.78-.5,2.68-.7,1.24-.28,2.52-.39,3.71-.9.28-.12.58-.2.81-.44.19-.19.5-.17.75-.24.07.03.1,0,.12-.07.53-.39,1.2-.51,1.76-.87.34-.22.81-.15,1.23-.14.27,0,.55.03.81-.06.12,0,.24,0,.36.01.06,0,.14.05.18.02.52-.3,1.06-.28,1.61-.11.24.13.5.06.74.09.63.41,1.34.65,2.03.93.04.04.09.08.13.12,0,0,0,0,0,0,0,.08.04.12.12.11.28.14.39.52.76.53.04.04.08.08.12.12.22.24.33.58.64.76.04.04.08.08.12.12.05.17.17.32.16.52-.04.09.02.12.09.13.07.29.36.46.41.76-.03.09.02.12.1.14.25.61.6,1.13,1.14,1.51.04.05.08.09.12.14.01.08.02.16.03.24-.03.09.02.12.09.14.07.23-.04.49.13.69,0,0-.02-.01-.02-.01l.03.03s0,.03,0,.03c-.02.09.03.13.11.14.09.46.29.87.53,1.26-.02.09.02.12.1.13.18.4.29.82.29,1.27-.04.09.02.12.09.13-.02.3.26.47.29.75-.03.09.02.12.09.14.04.19-.02.41.13.57,0,0-.01-.02-.01-.02l.02.02c.21.46.61.83.71,1.36.05.28.07.58.2.85-.03.09.02.12.1.14,0,.36.19.62.4.88-.01.09.03.12.11.12,0,0,0,0,0,0,.04.04.08.08.12.13.01.09.02.17.03.26-.03.09.02.12.09.13.02.28.23.49.28.76-.03.09.02.12.1.13-.04.34.22.58.28.88-.03.09.02.12.1.13.05.17.1.34.16.5-.03.09.02.12.1.13.03.23-.03.47.19.67.19.18.19.48.29.71-.02.15,0,.3.14.4-.05.26.25.3.31.5-.1.27.03.45.21.63,0,0,0,0,0,0,.04.05.08.09.12.14-.04.16.1.24.16.37-.02.1-.05.22.1.26.01.08.02.17.03.25-.03.09.01.12.09.13.01.08.03.16.04.25-.03.09.01.12.09.13l.03.25c-.03.09.02.12.09.13.05.17.11.33.16.5-.03.09.02.12.1.12,0,0,0,0,0,0,.02.06.05.11.12.13.35.96.73,1.91.92,2.92-.04.09.01.12.09.13.03.17,0,.37.16.5-.03.09.02.12.1.13.08.54.47.97.54,1.52-.03.09.02.12.1.13.01.12.03.25.04.37-.04.09.01.11.09.12.01.09.03.17.04.26-.05.12.1.16.11.25,0,.04,0,.09,0,.13-.07.17.07.26.13.38,0,.04,0,.09,0,.13-.02.09.02.12.1.14.05.17.11.33.16.5-.03.09.01.12.09.14-.07.34.21.56.27.86.24,1.05.76,2,1.12,3.01,0,0,0-.03,0-.03h0c.2.43.34.87.4,1.34,0,.24.16.45.12.7-.02.15.12.19.21.27-.04.06-.03.12.02.17-.05.09-.04.17.02.25,0,.06,0,.13-.01.19-.02-.04-.05-.04-.08,0,0,0,.02.02.03.03.07.05-.04-.02.04-.02.23.34.15.72.15,1.1-.02.67.02,1.34-.15,2-.15.18-.21.4-.22.63,0,.05-.02.09-.02.14-.13.03-.08.16-.12.24,0,0,0,0,0,0-.08,0-.12.04-.1.12.02.26-.14.49-.15.75-.07.02-.11.06-.09.14-.01.04-.02.08-.03.13-.07.02-.1.06-.11.13-.15.03-.12.16-.14.26-.04.04-.08.08-.12.12-.15.03-.23.12-.27.26-.06.02-.11.05-.13.12-.13-.01-.23.04-.33.14-.35.38-.71.75-1.07,1.13-.1,0-.15.07-.19.15h-.04s-.02.03-.02.03c-.07,0-.1.02-.12.08Zm-11.15-.31c-.41-.23-.71-.58-1.08-.85-.84-.6-1.64-1.27-2.46-1.89-.56-.42-1.05-.94-1.69-1.24-.26-.12-.5-.3-.68-.54-.55-.72-1.52-.94-2.01-1.73,0-.01-.04,0-.06-.02-.73-.3-1.19-.94-1.76-1.44-.53-.46-1.08-.97-1.8-1.04-.71-.07-1.15-.5-1.51-.98-.86-1.17-.18-2.31,1.08-2.87.5-.22,1.07-.32,1.65-.25.59.06,1-.5,1.58-.5.06,0,.13-.02.19-.02.51.03.97-.2,1.44-.34.63-.18,1.22-.49,1.91-.46.14,0,.28-.06.42-.11.78-.24,1.51-.67,2.37-.64.21,0,.45-.1.63-.22.35-.24.72-.42,1.14-.47.44-.05.77-.41,1.2-.43.48-.02.88-.23,1.29-.44.66-.33,1.28-.74,1.84-1.2.5-.41,1.01-.85,1.26-1.51.21-.56.29-1.14.35-1.7.07-.57.11-1.23-.38-1.71-.18-.18-.13-.41-.11-.59.06-.67-.26-1.23-.42-1.84-.1-.38-.51-.63-.44-1.06.08-.58-.25-1-.53-1.43-.45-.67-.6-1.5-1.11-2.13-.02-.03-.02-.08-.01-.12.11-.72-.56-1.19-.58-1.87-.49-.69-.65-1.55-1.13-2.24-.07-.1-.04-.2-.07-.29-.12-.43-.1-.93-.53-1.22-.16-.11-.08-.27-.13-.4-.11-.35-.14-.76-.35-1.04-.49-.67-1.04-1.29-1.06-2.18,0-.06-.04-.12-.07-.18-.44-.98-1.16-1.65-2.14-2.1-.47-.22-.97-.21-1.44-.35-.83-.24-1.58.03-2.28.32-.49.2-1.02.42-1.47.75-.13.1-.29.18-.45.21-.76.13-1.43.5-2.18.68-.71.17-1.4.39-2.12.47-.17.02-.31.07-.47.14-.67.27-1.32.71-2.03.7-.99-.02-1.78.74-2.76.61-.01,0-.03.03-.05.04-.78.23-1.55.44-2.38.43-.84,0-1.67.06-2.51.14-.45.04-.91-.16-1.32,0-.67.26-1.39.19-2.06.38-.32.09-.74.23-.8.57-.08.43-.27.82-.48,1.12-.48.67-.34,1.38-.33,2.09,0,.38.07.75-.12,1.09-.09.15-.11.27-.04.46.21.65.51,1.28.47,1.98-.03.56.04,1.08.37,1.54.28.39.17.85.3,1.27.21.66.26,1.38.71,1.96.09.12.07.33.11.49.12.51.04,1.07.3,1.52.26.45.3.97.59,1.4.25.37.16.86.29,1.26.24.74.43,1.48.5,2.25,0,.1.01.19.08.29.33.46.51.99.62,1.53.17.82.55,1.56.85,2.33.25.63.37,1.32.79,1.93.41.6.96.86,1.52,1.11.35.15.78.31,1.22.22,1.03-.22,2.08-.22,3.12-.36,1-.14,1.59.39,2.07,1.14.43.67.19,1.48-.48,1.96-.56.41-1.22.48-1.87.6-.65.13-1.26.3-1.81.72-.34.26-.79.39-1.25.25-.23-.07-.46-.12-.69-.07-.58.13-1.08-.04-1.64-.2-1.1-.31-2.02-.81-2.8-1.63-.23-.24-.43-.59-.85-.61-.06,0-.13-.1-.16-.18-.22-.48-.73-.73-.89-1.23-.12.03-.16.09-.16.15.04.57-.01,1.13-.18,1.67-.02.06,0,.13,0,.19.18.73-.12,1.42-.23,2.11-.14.84-.42,1.66-.34,2.53,0,.1,0,.22-.02.31-.2.67-.26,1.36-.17,2.04.05.43-.04.91.16,1.27.24.43.33.88.44,1.34.02.08.01.17.09.22.34.25.43.65.6,1,.09.2.2.39.38.49.71.37,1.34.82,1.78,1.5.03.04.11.06.16.08.68.27,1.42.36,2.04.79.02.01.04.01.06.01,1.12-.03,2.26.18,3.36-.22.83-.3,1.72-.29,2.56-.52.57-.16,1.13-.3,1.73-.25.16.01.29-.05.39-.17.32-.35.74-.43,1.19-.44.19,0,.37,0,.53-.14.31-.28.69-.36,1.1-.37.24,0,.42-.11.64-.21.77-.35,1.6-.52,2.43-.63.25-.03.49-.06.73-.13.46-.14.82-.45,1.26-.63-.17-.38-.46-.59-.75-.79-.74-.53-1.44-1.1-2.12-1.7-.34-.3-.65-.62-1.05-.85-.54-.3-.9-.75-.86-1.41.03-.59.22-1.14.62-1.59.42-.47,1.08-.67,1.6-.43.48.23.94.51,1.33.88.41.39.87.7,1.29,1.08.56.5,1.21.9,1.75,1.43.19.19.3.43.55.57.69.39,1.15.99,1.41,1.76.51-.33,1.15-.17,1.64-.51.5-.34,1.19.01,1.69-.46Z"/>
  <g>
    <path class="cls-1" d="m148.13,58.09l4.99-1.47.46,1.57-3.14.93.71,2.4,2.42-.71.46,1.57-2.42.71,1.07,3.63-1.85.55-2.7-9.17Z"/>
    <path class="cls-1" d="m153.99,56.36l4.5-1.33.35,1.85-2.97.87.5,2.1c.19-.63.6-1.03,1.2-1.21s1.2-.09,1.79.25,1.05,1.04,1.35,2.08.29,1.95-.07,2.65c-.36.7-.96,1.17-1.8,1.42-.78.23-1.49.18-2.13-.14-.64-.32-1.11-.87-1.42-1.63l1.59-.8c.34.81.83,1.12,1.46.93.69-.2.9-.8.6-1.79-.13-.44-.33-.77-.59-.98-.26-.22-.57-.27-.91-.17-.45.13-.69.46-.71.98l-1.54.13-1.22-5.21Z"/>
  </g>
  <g>
    <path class="cls-1" d="m39.32,65.49c-.09,1.69-.44,3.26-1.93,4.33-.16.12-.31.26-.46.41-.12.12-.21.25-.31.37.56.83,1.38,1.35,1.93,2.14.59.85.72,1.86,1.14,2.75.47.99-.02,1.91-.06,2.86-.12.06-.16.15-.08.27.33,1.1-.13,1.99-.79,2.81-.36.45-.78.85-1.25,1.18-.31.21-.59.45-.79.78-.16.27-.38.48-.65.64-1.1.63-2.14,1.38-3.38,1.73-.48,0-.96.01-1.43.02-.37-.09-.71-.03-1.02.19-.34,0-.68,0-1.03,0-.06-.01-.13-.02-.19-.04-.66-.38-1.37-.17-2.07-.17-.37.02-.76,0-1.12.07-1.95.38-3.59-1.17-3.23-3.11.14-.75.08-1.47.05-2.22-.08-2.01-.06-4.02-.03-6.03.04-2.45.15-4.91,0-7.36-.08-1.33.14-2.65.12-3.98,0-.4.03-.79-.05-1.2-.2-1.12.03-2.25.2-3.36.13-.85,1.41-1.73,2.39-1.51.84.19,1.44-.06,2.08-.46.83,0,1.66,0,2.49,0,.2,0,.39.01.59.02.49.02,1,.15,1.45-.17.99-.04,1.78.51,2.63.87.25.1.47.29.72.35.92.23,1.42.97,2.06,1.56.85.79,1.17,1.8,1.5,2.82.12.35.22.71.41,1.02.42.69.52,1.39.21,2.14-.11.06-.15.14-.11.26Zm-7.48-3.68c-.34-.36-.78-.21-1.19-.22l-.58-.06c-.49-.28-.98-.17-1.46.03-.4.07-.91.16-1.01.56-.15.6-.21,1.26-.12,1.86.19,1.24.31,2.48.34,3.73-.1.35.05.47.39.42.71.44,1.44.44,2.23.2.65-.21,1.25-.5,1.85-.8,1.33-.67,2.08-1.77,2.23-3.26.03-.12-.01-.2-.12-.26-.49-.99-1.07-1.88-2.3-2.03-.09-.01-.17-.1-.25-.16Zm-1.8,12.26c-.49.02-1-.16-1.46.14-.62.02-.9.36-.95.97-.05.58.2,1.19.1,1.7-.21,1.02-.12,2.02-.19,3.03-.05.87-.05.87.86.94.69.34,1.37.34,2.06.01,1.72.07,2.95-.86,3.92-2.11.51-.66.73-1.59.3-2.38-.51-.94-.92-2.08-2.32-2.09-.29,0-.59-.14-.88-.21-.41-.32-.82-.21-1.23,0-.07,0-.14,0-.2.01Z"/>
    <path class="cls-1" d="m90.52,35.73c-.02.28.02.58.17.78.61.83.72,1.87,1.25,2.73.4.65.46,1.42.65,2.13.24.89.54,1.72,1.1,2.46.42.55.83,3.26.63,3.93-.22.74-.71,1.22-1.45,1.43-.41,0-.82,0-1.23-.01-1.21-.4-1.93-1.17-2.29-2.45-.27-.97-.47-2.03-1.23-2.81-.26-.27-.11-.59-.22-.86.02-.12-.03-.2-.14-.25-.29-.57-.09-1.26-.47-1.8,0-.12-.06-.19-.16-.24-.49-.77-.4-1.73-.82-2.53-.11-.2-.16-.43-.27-.63-.1-.18-.27-.33-.49-.23-.55.25-1.12.08-1.68.09-.04-.11-.1-.19-.23-.16-.14,0-.28,0-.42,0-.18-.05-.34-.06-.44.14-.1,1.24-.21,2.49-.31,3.73-.08.13-.03.21.1.26.04.98.18,1.97.14,2.92-.05,1.09-.15,2.29-.81,3.28-.54.81-1.46,1.15-2.41.93-.87-.2-1.44-.92-1.63-1.87-.2-1.02.04-2.02.04-3.03.04-.1,0-.19-.08-.25-.48-.98-.11-2.02-.19-3.03-.03-.43-.01-.86-.1-1.3-.14-.69-.24-1.42.14-2.09.09-.16.12-.33.04-.49-.45-.87-.18-1.81-.22-2.71-.04-.88.07-1.76.14-2.65.02-.24,0-.46-.07-.7-.09-.32-.18-.7-.1-1,.28-1.07-.18-2.17.15-3.24.05-.17-.06-.4-.1-.6.17-.28.18-.55-.03-.82-.08-1.25.07-2.48.25-3.71.09-.68.6-1.11,1.18-1.43.49,0,.98-.01,1.46-.02.33,0,.67.02,1,.03,1.98,0,3.97-.02,5.95-.02,0,0,.02,0,.02,0,.09.15.22.22.4.19,0,0,.02.01.02.01.08.16.21.23.39.19,0,0,.03.01.03.01.07.06.13.12.2.18.65.05,1.09.51,1.61.82,2,1.18,3.17,2.99,3.99,5.09.15.39.13.79.06,1.2-.16.88-.45,1.73-.18,2.67.14.48-.14,1.05-.4,1.51-.28.5-.63.97-.94,1.45-.09.14-.26.28-.25.42.03.93-.62,1.38-1.25,1.85-.12,0-.19.05-.23.16,0,0-.02.01-.02.01-.18.02-.3.09-.26.29Zm-7.49-11.13c-.17,0-.35-.02-.42.19-.14.43-.21.86-.1,1.31.16.67.15,1.34.17,2.03.02,1.08-.36,2.13-.2,3.23.17,1.24.13,1.25,1.37,1.21.3.05.61.14.83-.18.51-.43,1.1-.64,1.78-.63.27,0,.57.08.8-.1.75-.59,1.57-1.24,1.77-2.17.23-1.12.08-2.36-.61-3.31-.73-1.01-1.91-1.42-3.13-1.6-.75,0-1.5,0-2.26,0Z"/>
    <path class="cls-1" d="m22.8,23.34c-.16-1.09.02-2.11.61-3.04.26-.41.66-.66,1.17-.68.63.01,1.25.02,1.88.03.47,0,.95.02,1.42.03,1.03.29,2.05.37,3.08,0,.31-.01.61-.01.91.1.63.23,1.28.41,1.9.67,1.03.45,1.99,1.06,2.83,1.77,1.64,1.41,2.47,3.23,2.52,5.45.04,1.6-.17,3.07-.95,4.51-.69,1.27-1.37,2.5-2.57,3.35-.24.17-.28.35-.17.61.05.12,0,.3.08.4.55.72.64,1.62.96,2.43.59,1.51,1.1,3.04,1.63,4.56.1.29.2.58.36.84.51.85.46,1.78.35,2.68-.16,1.29-1.34,1.81-2.7,1.7-.83-.06-1.51-.52-2-1.23-.14-.2-.23-.38-.27-.63-.15-.93-.26-1.88-.91-2.64-.06-.07-.1-.19-.09-.28.06-.76-.18-1.4-.71-1.94-.14-.14-.1-.31-.11-.48-.02-.24,0-.48-.12-.7-.59-1.13-1.05-2.31-1.34-3.55-.05-.19-.17-.27-.37-.27-.25,0-.44.16-.65.26-.52-.01-1.05-.03-1.57-.03-.19,0-.4,0-.46.25,0,.2-.06.42,0,.61.26.88.22,1.76-.02,2.61-.28.96.1,1.87.11,2.8.02,1.4-.2,2.75-.54,4.09-.18.71-.76,1.08-1.4,1.35-.34,0-.69,0-1.03,0-.33-.09-.67-.15-.98-.28-.79-.33-1.38-.93-1.31-1.78.09-1.15-.18-2.32.12-3.46.1-.06.13-.15.1-.26-.04-.78.13-1.56-.13-2.33-.07-.21,0-.47.03-.71.02-.17.14-.34.11-.49-.35-1.59.22-3.17.02-4.77-.14-1.13.08-2.31.06-3.46-.03-1.39-.02-2.78.16-4.16.02-.2.01-.42-.06-.6-.2-.55-.11-1.07.03-1.6.13-.49.31-.98.17-1.5.03-.12-.02-.2-.12-.26Zm7.14,8.82c.61-.07,1.24.07,1.83-.21.31-.19.78-.1.99-.47.41-.73,1.17-1.26,1.32-2.15.11-.05.16-.14.12-.26-.05-.5-.2-.99-.14-1.5.03-.24-.1-.44-.21-.65-.5-.97-1.31-1.52-2.3-1.89-.26-.37-.64-.22-.99-.23-.58-.3-1.16-.24-1.75,0-.24.1-.6-.12-.75.14-.13.21-.08.53-.15.78-.15.56.11,1.17-.16,1.71-.3.58-.23,1.17-.23,1.78,0,1.02.47,1.99.36,3.02.7.28,1.38.22,2.06-.08h.02Z"/>
    <path class="cls-1" d="m72.75,57.02c.17.1.32.22.54.25,1.16.19,2.09.91,3.12,1.41.52.25.88.77,1.12,1.29.37.78.67,1.6.94,2.42.14.44.35.86.51,1.29.63,1.7.58,3.44.54,5.2,0,.44.05.84.18,1.27.28.98.05,2-.04,2.99-.02.18-.23.37-.14.57.57,1.3-.04,2.51-.29,3.73-.29,1.39-1.03,2.66-1.23,4.09-.05.35-2.11,2.89-2.42,3.05-.6.31-1.2.61-1.81.92-.62.07-1.27-.17-1.87.15-.2.08-.4.16-.6.24-.55,0-1.09-.01-1.64-.02-1.37-.4-2.61-1.04-3.75-1.9-1-.76-1.8-1.66-2.32-2.77-.35-.74-.56-1.58-.56-2.42,0-1.08-.1-2.14-.32-3.2-.13-.6.04-1.21.06-1.8.04-1.15-.56-2.25-.28-3.37.31-1.19-.13-2.41.22-3.58.1-.06.14-.14.11-.26.03-.6-.11-1.28.12-1.8.46-1.03.94-2.07,1.55-3.02.27-.41.54-.81.79-1.23.8-1.34,1.81-2.53,3.38-3.04.67-.21,1.29-.58,2.01-.65.34.07.69.07,1.04.02,0,0,.01,0,.01,0,.31.25.67.2,1.03.17Zm-4.92,19.51c.01.2.03.4.03.6.01,1.23.23,2.34,1.5,2.97.28.14.48.46.71.69.68.32,1.37.22,2.05,0,.69-.26,1.05-.78,1.24-1.48.2-.73.39-1.49.74-2.15.39-.75.2-1.64.7-2.34.06-.08,0-.28-.06-.38-.27-.45-.08-.92-.11-1.38-.08-1.1.15-2.19.06-3.3-.1-1.28-.24-2.53-.45-3.79-.17-1.02-.3-2.03-.64-3.02-.29-.84-.47-.98-1.48-1.02-.55.04-1.13-.21-1.64.2-.3.41-.57.84-.91,1.22-.74.81-1.33,1.73-1.64,2.76-.29.96-1.06,1.9-.4,3,.03.05,0,.13,0,.2-.18.7-.04,1.41-.01,2.11-.06.11,0,.19.09.25.06.26.22.55.15.78-.28.97.13,1.92.04,2.87-.16.41-.2.82.04,1.22Z"/>
    <path class="cls-1" d="m49.33,85.57c-.07,0-.15.01-.2-.02-.98-.56-2.27-.73-2.98-1.56-.99-1.15-2.08-2.26-2.44-3.91-.28-1.28-.6-2.57-.99-3.83-.08-.26-.18-.52-.16-.8.17-1.9-.28-3.79-.2-5.67.05-1.25-.19-2.52.23-3.75.07-.21,0-.47.01-.71,0-.27-.06-.59.06-.8.49-.84.5-1.88,1.13-2.66.18-.22.13-.55.27-.76,1.13-1.66,2.27-3.31,4.25-4.08.56,0,1.14.24,1.65-.17.06-.01.13-.03.19-.04.28.06.57.06.85,0,.06.01.13.02.19.03.32.26.68.19,1.05.15.79.28,1.63.39,2.43.63.94.27,1.72.8,2.51,1.32.5.33.63.89.75,1.39.15.69.31,1.36.68,1.98.07.12.14.25.16.38.23,1.55.94,2.98,1.17,4.54.11.75.08,1.5.09,2.24,0,.54.13,1.12.05,1.62-.18,1.18-.08,2.36-.19,3.52-.06.63-.11,1.34-.35,1.88-.57,1.27-.83,2.65-1.4,3.9-.38.85-.76,1.73-1.53,2.37-.92.76-1.87,1.5-2.89,2.07-.74.42-1.67.49-2.52.71-.62,0-1.24,0-1.85.01Zm5.6-17.27c-.11-.84-.24-1.69-.33-2.54-.07-.72-.11-1.44-.78-1.91-.17-.12-.17-.28-.19-.45-.08-.73-.46-1.14-1.21-1.24-.26-.03-.5-.2-.76-.28-.96-.3-2.23,0-2.65.7-.47.79-1.09,1.6-1.21,2.46-.14,1.09-.6,2.14-.53,3.26.02.27,0,.56-.08.81-.13.42-.02.78.06,1.19.28,1.45.77,2.9.28,4.41-.09.27-.07.63.02.91.31,1.03.62,2.06,1.02,3.05.24.59.58,1.13,1.09,1.58.42.37.77.52,1.25.18.28-.2.6-.31.94-.39.68-.15,1.24-.58,1.52-1.13.49-.95.91-1.97,1.11-3,.24-1.26.5-2.53.42-3.84-.07-1.16-.16-2.34.13-3.5.03-.12,0-.2-.11-.26Z"/>
    <path class="cls-1" d="m86.91,56.34c1.04.34,1.5,1.1,1.59,2.15.07.74.17,1.46.04,2.23-.14.84.24,1.67.26,2.53.01.45.56.73.9,1.06.11.11.25.06.36-.04.17-.17.39-.31.49-.51,1.02-1.93,2.28-3.69,3.77-5.28.23-.25.41-.55.62-.81,1.12-1.38,3.09-1.09,3.68.58.39,1.1.44,2.19-.4,3.21-1.12,1.37-2.13,2.82-3.2,4.22-.43.57-.64,1.28-1.07,1.82-.37.46-.55.96-.77,1.47-.2.46-.05.86.21,1.12.82.83,1.15,1.91,1.67,2.89.09.18.13.4.29.53,1.17.96,1.45,2.4,1.95,3.71.01.03,0,.07.02.1.78,1.06,1.22,2.29,1.78,3.46.2.42.49.8.67,1.23.61,1.45.13,2.55-1.4,3.3-.49,0-.97-.01-1.46-.02-1.07-.42-1.65-1.22-2.18-2.25-.75-1.46-1.47-2.94-2.28-4.37-.34-.61-.73-1.21-.88-1.92-.05-.25-.28-.38-.43-.57-.26-.34-.5-.67-.64-1.11-.23-.74-.94-1.23-1.21-1.99-.07-.21-.48,0-.53.38-.08.68-.13,1.36-.17,2.03-.04.81-.17,1.62-.02,2.45.05.28-.05.61-.13.9-.07.27-.17.54-.09.8.37,1.25.05,2.51.11,3.76.02.37-.08.75-.18,1.11-.46,1.61-2.35,2.1-3.54.93-.95-.93-1.47-1.96-1.33-3.37.16-1.65.08-3.32.19-4.98.09-1.32,0-2.62-.1-3.94-.1-1.35.08-2.71.14-4.07.01-.2.12-.4.05-.6-.61-1.7-.25-3.43-.12-5.15.08-1.02-.03-2.04,0-3.06.01-.41.01-.81.03-1.22.08-1.35.8-2.2,2.01-2.7.42,0,.84,0,1.26-.01Z"/>
    <path class="cls-1" d="m99.25,48.78c-2-.32-2.39-1.56-2.16-3.29.04-.33.28-.62.25-.98.02-.12-.04-.19-.16-.21-.41-.66-.32-1.36-.15-2.07.04-.09.08-.17.12-.26-.08-.81-.27-1.63-.23-2.43.13-2.16.1-4.31.04-6.47-.03-.98.02-1.96-.12-2.94-.12-.85.26-1.67.17-2.54-.18-1.66-.05-3.33.06-4.98.09-1.27.45-2.65,1.96-3.17.41,0,.83,0,1.24,0,0,0,.01,0,.01,0,.1.14.23.21.41.18,0,0,.02,0,.02,0,.38.39.8.34,1.23.1.67-.18,1.35.04,2.02-.08.61,0,1.23,0,1.84,0,0,0,.01,0,.01,0,.17.19.37.25.62.19.2,0,.4,0,.6.01.24.05.45,0,.62-.19.06-.01.13-.02.19-.03.21.06.42.06.63,0,.29-.01.5.3.81.22.6.39,1.25.08,1.87.15,1.63-.09,2.2,1.92,1.65,3.2-.48,1.1-1.41,1.45-2.49,1.59-.24-.04-.45,0-.63.17-.2,0-.4-.01-.59-.02-.53-.35-1.1-.14-1.66-.16-.13-.02-.25-.04-.38-.06-.27-.35-.7-.28-1.01-.24-.9.11-1.79.03-2.69.07,0,0-.01,0-.01,0-.16-.19-.38-.23-.61-.19-.14,0-.28,0-.41,0-.18-.04-.36-.06-.42.18,0,.42.01.83.02,1.25-.18.27-.19.54-.02.82-.09.34-.01.68.06,1.01.1.4.14.81,0,1.21-.23.65-.07,1.26.19,1.86.24.49.65.19,1,.22,0,0,.01,0,.01,0,1.53.31,3.06.26,4.6.05.03,0,.05-.04.08-.06,0,0,.02,0,.02,0,.47.02.94.04,1.4.06.88.44,1.51,1.3,1.38,2.09-.18,1.02-.54,1.95-1.72,2.23-.08.05-.16.1-.24.15,0,0,0,0,0,0-.18-.04-.32.03-.41.19,0,0-.01,0-.01,0-.17-.01-.31.05-.4.2,0,0-.01,0-.01,0-1.39,0-2.77.18-4.16-.07-.5-.09-1.07,0-1.56.3-.2.98-.14,1.97-.05,2.94.12,1.19-.23,2.37-.09,3.55.03.37.31.27.52.27.83-.01,1.66-.03,2.5-.05.58.31,1.18.36,1.81.23.14,0,.29,0,.43,0,.07,0,.12.02.17.07.13.23.35.16.55.16,1.06,0,2.12,0,3.17-.01.41.11.73.37,1.06.6.89.6,1.25,1.4.93,2.47-.12.04-.18.11-.15.24-.2.79-.74,1.29-1.45,1.63-.55,0-1.09,0-1.64.01-.37.08-.67-.17-1.01-.23-.35-.22-.69-.27-1.04,0-.06.01-.13.02-.19.03-.41,0-.82,0-1.23-.01-.55,0-1.09-.01-1.64-.02-.66-.32-1.37-.14-2.06-.19-.06-.01-.13-.03-.19-.04-.29-.24-.56-.25-.81.06-.34.44-.76.77-1.27.99-.41,0-.81,0-1.22,0Z"/>
    <path class="cls-1" d="m48.21,24.96c-.13.01-.25.02-.38.04-.62-.17-1.24-.26-1.87-.03-.16.16-.22.37-.16.57.2.67.2,1.34.02,2.01-.02.06-.03.15,0,.2.55,1.04.01,2.14.18,3.19.27.44.67.18,1.02.2,0,0,.01,0,.01,0,.89.28,1.78.32,2.67.05.13-.02.25-.04.38-.05.28.06.56.06.83,0,0,0,.01,0,.01,0,.21.21.47.22.74.22.5,0,1,0,1.49,0,.26.15.52.32.8.45.91.43,1.23,1.23,1.17,2.14-.07,1.02-.62,1.75-1.67,2.02-.16.04-.33.07-.5.11-.89,0-1.77,0-2.66,0-1.29.19-2.62-.19-3.9.21-.06-.08-.14-.15-.22-.08-.05.04,0,.1.08.09-.19,1.09-.11,2.18-.04,3.27-.17.21-.17.41,0,.62-.17.83.05,1.67-.09,2.49-.03.18.08.32.27.36,1.03,0,2.06,0,3.09,0,.87.01,1.74,0,2.61.04.63.03,1.23.34,1.88.18.35.06.7.05,1.04-.02.93.18,1.59.72,1.99,1.56.51,1.07.12,2.24-.95,2.76-.91.44-1.84.91-2.9.42-.07-.1-.14-.1-.2,0,0,0-.01,0-.01,0-.29-.03-.58-.02-.82.19-.2,0-.4,0-.61,0-.58-.39-1.23-.15-1.85-.18-.06-.01-.13-.02-.2-.03-1.07-.23-2.14-.3-3.21-.06-.03,0-.05.04-.08.06,0,0-.01,0-.01,0-.41.03-.86-.15-1.22.2-1.4.74-3.05-.41-3.78-1.45-.07-.1-.08-.25-.08-.38-.01-1.19-.11-2.38.03-3.57.15-1.25-.03-2.49-.13-3.74-.02-.24-.09-.48-.06-.71.21-1.35.26-2.7.02-4.05-.05-.28-.03-.56.1-.8.39-.73.22-1.46.03-2.19-.14-.54-.27-1.06-.07-1.6.03-.09.06-.21.04-.3-.33-1.8-.06-3.58.18-5.35.04-.12,0-.2-.1-.26-.62-1.55-.21-2.85,1.12-3.72.76-.5,1.52-.44,2.31-.14.59.35,1.23.2,1.86.17.12,0,.24-.01.37-.02.85.02,1.69.08,2.53.04.73-.03,1.49.18,2.18-.22,0,0,.02,0,.02,0,.57.01,1.14.02,1.72.04.27,0,.54,0,.75-.21.06-.01.13-.02.19-.03.21.06.43.06.64,0,1.78.2,2.49,2.26,1.76,3.86-.28.61-.86.97-1.52,1.05-.84.09-1.66.35-2.51.25-.54,0-1.09,0-1.63,0-.14,0-.28,0-.42,0-.44,0-.89-.03-1.33-.02-.32.01-.69-.16-.95.18Z"/>
    <path class="cls-1" d="m127.51,27.28c-.78-.25-1.39-.7-1.77-1.44-.31-.61-.8-1.02-1.43-1.24-.49-.17-.96-.48-1.52-.42-.41.04-.85-.05-1.22.2,0,0-.01,0-.01,0-.19-.03-.32.05-.37.24-.27.48-.91.72-.88,1.39-.11.06-.15.14-.11.26.04.3.07.6.11.9.12,1.07.5,1.96,1.37,2.7.58.49,1.1,1.07,1.74,1.49.36.42.81.19,1.24.18,1.17.31,2.07,1.13,3.06,1.74.77.47,1.51,1.14,1.89,2.05.11.27.32.53.53.74.42.43.61.98.75,1.53.25.95.32,1.94.57,2.89.14.52.05,1.08-.09,1.62-.23.9-.77,1.69-.87,2.65-.03.32-.28.63-.53.85-1.07.94-2.08,1.96-3.29,2.73-1.22,0-2.44.01-3.67.02-.07,0-.13,0-.2-.02-.51-.35-1.09-.19-1.64-.19-.58-.06-.88-.58-1.33-.85-.98-.61-2.04-1.08-2.92-1.85-.87-.77-1.42-1.71-1.71-2.82.2-.34.2-.68.01-1.03.05-.38.18-.73.39-1.04.11-.03.17-.1.17-.22.08-.13.16-.26.25-.39.11-.04.17-.1.16-.22.14-.15.28-.3.42-.45.12,0,.18-.05.21-.16,0,0,.02-.01.02-.01.12.01.19-.04.24-.14.06-.02.11-.04.17-.06.49,0,.98,0,1.47-.01.06.02.12.04.18.06.05.1.12.16.24.14.05.03.1.06.15.09.02.11.09.17.2.19,0,0,0,0,0,0,.01.11.07.18.19.21.24.37.46.77.44,1.22-.02.51.22.77.62,1.05.72.5,1.51.9,2.23,1.4.58.4,1.37.29,2.04.09.57-.17.95-.62,1.02-1.26.03-.31.15-.59.3-.86.11-.05.16-.13.15-.24.3-.65-.12-1.12-.35-1.68-.53-1.33-1.61-2.08-2.69-2.86-.24-.27-.54-.19-.84-.16-1.38-.48-2.74-.97-3.74-2.13-.31-.36-.72-.62-1.09-.93-.57-.46-.98-1.04-1.3-1.69-.09-.18-.13-.4-.26-.55-.67-.79-.79-1.73-.9-2.72-.19-1.64-.02-3.23.34-4.82.02-.09.04-.2.1-.27,1.09-1.3,2.08-2.71,3.72-3.4.41-.17.83-.31,1.28-.3.54-.05,1.12.11,1.63-.21,0,0,.01,0,.01,0,.48,0,.97-.02,1.45-.02.56.26,1.19.19,1.77.42,1.59.63,3.01,1.45,3.91,2.98.12.2.29.38.45.55,1.21,1.31.96,2.98-.58,3.85-.15.08-.3.16-.45.23-.48,0-.96.01-1.44.02Z"/>
    <path class="cls-1" d="m114.07,64.67c-.78-.25-1.39-.7-1.77-1.44-.31-.61-.8-1.02-1.43-1.24-.49-.17-.96-.48-1.52-.42-.41.04-.85-.05-1.22.2,0,0-.01,0-.01,0-.19-.03-.32.05-.37.24-.27.48-.91.72-.88,1.39-.11.06-.15.14-.11.26.04.3.07.6.11.9.12,1.07.5,1.96,1.37,2.7.58.49,1.1,1.07,1.74,1.49.36.42.81.19,1.24.18,1.17.31,2.07,1.13,3.06,1.74.77.47,1.51,1.14,1.89,2.05.11.27.32.53.53.74.42.43.61.98.75,1.53.25.95.32,1.94.57,2.89.14.52.05,1.08-.09,1.62-.23.9-.77,1.69-.87,2.65-.03.32-.28.63-.53.85-1.07.94-2.08,1.96-3.29,2.73-1.22,0-2.44.01-3.67.02-.07,0-.13,0-.2-.02-.51-.35-1.09-.19-1.64-.19-.58-.06-.88-.58-1.33-.85-.98-.61-2.04-1.08-2.92-1.85-.87-.77-1.42-1.71-1.71-2.82.2-.34.2-.68.01-1.03.05-.38.18-.73.39-1.04.11-.03.17-.1.17-.22.08-.13.16-.26.25-.39.11-.04.17-.1.16-.22.14-.15.28-.3.42-.45.12,0,.18-.05.21-.16,0,0,.02-.01.02-.01.12.01.19-.04.24-.14.06-.02.11-.04.17-.06.49,0,.98,0,1.47-.01.06.02.12.04.18.06.05.1.12.16.24.14.05.03.1.06.15.09.02.11.09.17.2.19,0,0,0,0,0,0,.01.11.07.18.19.21.24.37.46.77.44,1.22-.02.51.22.77.62,1.05.72.5,1.51.9,2.23,1.4.58.4,1.37.29,2.04.09.57-.17.95-.62,1.02-1.26.03-.31.15-.59.3-.86.11-.05.16-.13.15-.24.3-.65-.12-1.12-.35-1.68-.53-1.33-1.61-2.08-2.69-2.86-.24-.27-.54-.19-.84-.16-1.38-.48-2.74-.97-3.74-2.13-.31-.36-.72-.62-1.09-.93-.57-.46-.98-1.04-1.3-1.69-.09-.18-.13-.4-.26-.55-.67-.79-.79-1.73-.9-2.72-.19-1.64-.02-3.23.34-4.82.02-.09.04-.2.1-.27,1.09-1.3,2.08-2.71,3.72-3.4.41-.17.83-.31,1.28-.3.54-.05,1.12.11,1.63-.21,0,0,.01,0,.01,0,.48,0,.97-.02,1.45-.02.56.26,1.19.19,1.77.42,1.59.63,3.01,1.45,3.91,2.98.12.2.29.38.45.55,1.21,1.31.96,2.98-.58,3.85-.15.08-.3.16-.45.23-.48,0-.96.01-1.44.02Z"/>
    <path class="cls-1" d="m68.5,36.91c-.06-.01-.12-.03-.19-.04-.69-.16-1.38-.33-2.07,0-.06.01-.13.02-.19.03-.31,0-.61-.03-.92,0-.29.03-.32.2-.14.41.18.78-.03,1.56-.06,2.33,0,.24-.12.49-.06.71.39,1.62-.24,3.23-.03,4.85.04.27,0,.54-.01.82-.07,1.52-.43,2-1.88,2.54-.54,0-1.09.01-1.63.02-.89-.37-1.38-1.01-1.47-1.98-.08-.85-.02-1.71.02-2.54.05-1.16-.13-2.31-.03-3.46.1-1.05-.11-2.15.07-3.15.21-1.23-.07-2.42,0-3.62.05-1.01.04-2.04-.01-3.06-.05-.95-.07-1.91.06-2.85.03-.21.03-.4-.02-.61-.17-.64-.15-1.32,0-1.93.25-.97.07-1.7-.46-2.56-.6-.96-.25-2.04.81-2.7.89-.56,1.84-.85,2.89-.43,1.57,0,3.15,0,4.72,0,1.03.08,2.06.08,3.06-.22.83.19,1.66.24,2.51.17,1.11.14,2.16,1.11,2.34,2.16.18,1-.31,1.75-1.57,2.4-.25-.09-.45.02-.62.19-.06,0-.12.02-.18.04-.18-.03-.31.04-.42.18,0,0-.01,0-.01,0-.47,0-.95,0-1.42-.01-.14,0-.29,0-.43,0-1.35,0-2.7,0-4.05,0-.37,0-.75-.06-1.07.21-.13,0-.27,0-.4,0-.27-.17-.55-.39-.79.04-.09.55-.04,1.1.06,1.63.28,1.46.26,2.9-.08,4.34-.07.29.02.61.03.92.16.31.46.24.71.25.5.01,1-.01,1.51-.02.54.08,1.08.06,1.62,0,.35,0,.7-.01,1.05-.02.06.01.13.02.2.03.13.17.26.17.4.01.66-.03,1.28.14,1.82.5,1.39.92,1.41,2.8.05,3.76-.14.1-.29.17-.43.26-.24-.05-.45,0-.62.18,0,0-.01,0-.01,0-.48.04-.98-.13-1.42.21,0,0-.01,0-.01,0-.41,0-.82.01-1.23.02Z"/>
    <path class="cls-1" d="m134.31,45.3c-.07.15-.18.3-.2.45,0,.07,0,.13,0,.2l5.26-1.42c.02-1.24.05-2.48-.08-3.71-.07-.13-.02-.21.11-.26.09-1.35-.06-2.7-.14-4.04.07-.36.34-.26.57-.24.28,0,.55.01.83.02.36-.01.72-.04,1.03.19.2,0,.4,0,.61,0,.88-.37,1.79-.09,2.68-.16.33-.02.66-.14.95.01.22.98-.21,1.9-.1,2.79.15,1.23.03,2.45-.03,3.67l5.11-1.38c.02-.75.05-1.49.08-2.24.03-.71.18-1.43.07-2.11-.15-.94-.2-1.87-.12-2.82.08-1.11.32-2.22,0-3.34-.11-.38-.12-.84,0-1.21.5-1.63.05-3.31.29-4.97.14-.97-.01-2.03-.1-3.04-.09-1.04-.35-2.09-1.45-2.62l-1.64-.02c-1.26.74-2.04,1.76-1.98,3.31.02.54.03,1.08.05,1.63.04,1.01.11,2.05.03,3.04-.08.97-.04,1.89.13,2.83.08.44.16.88-.08,1.29-.21.33-.54.23-.83.23-.41,0-.81-.02-1.22-.03-.06.01-.12.03-.18.04-.83.32-1.66.34-2.48-.01-.06,0-.13-.02-.19-.03-.35.05-.69.05-1.04-.01-.06,0-.13.02-.19.03-.14.14-.28.26-.44.03-.1-.49-.35-1.02-.26-1.48.22-1.08.05-2.16.18-3.24.05-.4.17-.85.05-1.21-.39-1.21.02-2.41-.03-3.61-.05-1.45-.23-2.04-1.55-2.62-.69,0-1.37,0-2.06.01-.86.38-1.37,1.04-1.41,1.96-.07,1.62-.23,3.26-.08,4.87.21,2.14-.25,4.25-.08,6.39.12,1.54.11,3.11.13,4.67,0,.3.04.6,0,.91-.21,1.58-.35,3.16-.25,4.76.05.74.16,1.48.18,2.22.03.12-.02.19-.12.25Z"/>
  </g>
</svg>