<?xml version="1.0" encoding="utf-8"?>
<!-- Generator: Adobe Illustrator 27.4.1, SVG Export Plug-In . SVG Version: 6.00 Build 0)  -->
<svg version="1.1" id="레이어_1" xmlns="http://www.w3.org/2000/svg" xmlns:xlink="http://www.w3.org/1999/xlink" x="0px"
	 y="0px" viewBox="0 0 800 800" style="enable-background:new 0 0 800 800;" xml:space="preserve">
<style type="text/css">
	.st0{fill:#1DC078;}
</style>
<path class="st0" d="M660,640H140c-11,0-20,9-20,20v40c0,11,9,20,20,20h520c11,0,20-9,20-20v-40C680,649,671,640,660,640z M740,240
	c-33.1,0-60,26.9-60,60c0,8.9,2,17.1,5.5,24.8L595,379c-19.2,11.5-44.1,5-55.2-14.5L437.9,186.2c13.4-11,22.1-27.5,22.1-46.2
	c0-33.1-26.9-60-60-60s-60,26.9-60,60c0,18.8,8.8,35.2,22.1,46.2L260.2,364.5c-11.1,19.5-36.1,26-55.2,14.5l-90.4-54.2
	c3.4-7.5,5.5-15.9,5.5-24.8c0-33.1-26.9-60-60-60S0,266.9,0,300s26.9,60,60,60c3.2,0,6.5-0.5,9.6-1L160,600h480l90.4-241
	c3.1,0.5,6.4,1,9.6,1c33.1,0,60-26.9,60-60S773.1,240,740,240z"/>
</svg>
