<?xml version="1.0" encoding="UTF-8"?>
<svg id="_레이어_1" data-name="레이어 1" xmlns="http://www.w3.org/2000/svg" viewBox="0 0 141.73 141.73">
  <defs>
    <style>
      .cls-1 {
        fill: #1dc078;
      }
    </style>
  </defs>
  <path class="cls-1" d="m36.67,94.57c.27-.33.47-.7.43-1.17-.14-1.77.73-3.14,1.68-4.47.45-.64.71-1.33.88-2.14.23-1.09.86-2.01,1.74-2.81,1.09-.99,2.42-1.63,3.44-2.7.23-.25.56-.45.88-.54,1.61-.47,3.23-.9,4.85-1.35.61.09,1.22.09,1.82-.03.51.08.95.07,1.47-.18.86-.41,1.79-.76,2.78-.53,1.04.43,2.06.98,3.24.63.48.26.95.52,1.43.78.75.61,1.63.25,2.45.37.28.51.77.21,1.16.31.67.54,1.44.25,2.17.27.83,0,1.65,0,2.48-.01.25.11.49.08.73-.04.35-.01.69-.02,1.04-.03.37,0,.74,0,1.1.01,1.51.34,2.88-.26,4.17-.9,1.18-.58,2.36-1.02,3.65-1.04,1.29-.01,2.37-.86,3.71-.84,1.13.02,2.19.4,3.29.4.65,0,1.3-.07,1.95-.1.71,0,1.42,0,2.13,0,0,0,.02.03.02.03,0,.27.12.39.39.31,1.83.53,3.74.82,5.15,2.41.61.68,1.44,1.2,2.25,1.63,1.05.55,1.76,1.36,2.33,2.41.99,1.84,2.01,3.63,2.37,5.78.2,1.17,1.31,1.99,1.56,3.21.05.23.27.48.23.67-.46,1.99.47,3.69,1,5.46,9.39-9.18,15.23-21.98,15.23-36.15,0-27.91-22.63-50.54-50.54-50.54s-50.54,22.63-50.54,50.54c0,13.88,5.59,26.44,14.65,35.58-.02-.45-.04-.9-.03-1.36.04-1.46.37-2.73,1.28-3.84Zm14.66-48.82l.21-1.57c.63-2.02,1.11-4.11,1.96-6.03.54-1.22,1.41-2.37,2.54-3.19.19-.14.52-.17.6-.35.85-1.84,2.63-2.75,3.86-4.21.7-.17,1.48.19,2.13-.34,0,0,.05-.01.05-.01.78-.04,1.64.22,2.19-.65,1.04-.21,2.1.13,3.13-.18,1.53.25,3.07.17,4.61.17,1.62.35,3.28.59,4.87,1.08,2.3.71,4.68,1.25,6.62,2.93.64.55,1.25,1.12,1.81,1.74.91.99,1.44,2.26,2.61,3.1.75.54.78,1.82,1.05,2.79.12.41.14.85.2,1.27-.02.05-.07.1-.06.13.04.09.1.17.15.25-.01.13.02.24.1.33.09.13.18.26.27.39.36,1.9.53,3.8.3,5.74-.04.34.16.7.26,1.05.16.54.32,1.17.08,1.62-1.02,1.93-.62,4.03-.75,6.06-.21.11-.26.27-.15.49-.32,1.38-.91,2.67-1.24,4.06-.22.94-.58,1.91-1.24,2.75-.55.71-1.02,1.52-1.27,2.51-.25.99-1.38,1.44-2.22,1.95-1.38.83-2.79,1.6-4.16,2.48-1.4.89-2.95,1.59-4.62,1.88-1.65.58-3.35.15-5.02.26,0,0-.05-.02-.05-.02-.89-.64-1.88-.38-2.85-.32-2.06-.57-4.09-1.21-5.87-2.52-2.02-1.49-4.12-2.87-5.37-5.22-.34-.64-.93-1.07-1.35-1.67-1.4-1.98-2.33-4.12-2.81-6.52-.52-2.58-1-5.15-.89-7.8.33-.67.7-1.35-.09-1.97-.35-.91.69-1.57.4-2.47Z"/>
  <path class="cls-1" d="m80.27,53.03c.98,0,1.8-.37,2.46-1.11.59-.68.88-1.44.88-2.3,0-.94-.29-1.74-.88-2.39-.66-.68-1.47-1.02-2.46-1.02s-1.84.34-2.46,1.02c-.62.65-.93,1.44-.93,2.39,0,.86.31,1.62.93,2.3.66.74,1.47,1.11,2.46,1.11Z"/>
  <path class="cls-1" d="m62.27,53.03c.98,0,1.8-.37,2.46-1.11.59-.68.88-1.44.88-2.3,0-.94-.29-1.74-.88-2.39-.66-.68-1.47-1.02-2.46-1.02s-1.84.34-2.46,1.02c-.62.65-.93,1.44-.93,2.39,0,.86.31,1.62.93,2.3.66.74,1.47,1.11,2.46,1.11Z"/>
  <path class="cls-1" d="m63.46,56.92c-.2.13-.37.34-.52.64-.15.33-.2.67-.17,1,.03.39.17.73.44,1.03.96.96,2.25,1.73,3.85,2.3,1.43.5,2.84.75,4.22.75,1.52,0,2.93-.22,4.24-.67,1.59-.54,2.85-1.33,3.78-2.38.23-.28.36-.6.39-.97.04-.33,0-.67-.13-1-.1-.3-.23-.52-.41-.67-.19-.13-.35-.12-.5.03-.94.96-2.05,1.71-3.34,2.25-1.29.54-2.63.8-4.04.8-1.29,0-2.71-.36-4.26-1.08-1.36-.65-2.37-1.31-3.04-2-.14-.17-.32-.18-.54-.03Z"/>
</svg>