<?xml version="1.0" encoding="UTF-8"?>
<svg id="_레이어_1" data-name="레이어 1" xmlns="http://www.w3.org/2000/svg" viewBox="0 0 141.73 141.73">
  <defs>
    <style>
      .cls-1 {
        fill: none;
        stroke: #1dc078;
        stroke-miterlimit: 10;
        stroke-width: 7px;
      }

      .cls-2 {
        fill: #1dc078;
      }
    </style>
  </defs>
  <g>
    <path class="cls-2" d="m37.78,101.25c.26-.32.46-.68.42-1.14-.13-1.71.71-3.04,1.62-4.33.44-.62.69-1.29.85-2.08.22-1.05.83-1.95,1.69-2.72,1.06-.96,2.34-1.58,3.33-2.62.23-.24.54-.43.85-.52,1.56-.46,3.13-.87,4.7-1.3.59.09,1.18.08,1.77-.03.49.08.92.07,1.43-.17.83-.39,1.73-.74,2.7-.52,1.01.41,1.99.95,3.14.61.46.25.92.5,1.38.75.73.59,1.58.24,2.37.35.28.49.74.2,1.12.3.65.52,1.39.24,2.1.27.8,0,1.6,0,2.4-.01.24.1.48.08.71-.04.33,0,.67-.02,1-.03.36,0,.71,0,1.07.01,1.47.33,2.78-.25,4.03-.87,1.14-.56,2.28-.99,3.53-1,1.25-.01,2.29-.83,3.59-.81,1.09.02,2.12.39,3.19.38.63,0,1.26-.06,1.88-.1.69,0,1.37,0,2.06,0,0,0,.02.03.02.03,0,.26.12.38.37.3,1.78.51,3.62.8,4.99,2.33.59.66,1.39,1.16,2.17,1.58,1.02.54,1.7,1.31,2.25,2.33.96,1.78,1.95,3.51,2.3,5.59.19,1.13,1.27,1.92,1.51,3.11.05.23.26.47.22.65-.45,1.92.46,3.57.97,5.29,9.09-8.88,14.75-21.28,14.75-34.99,0-27.02-21.91-48.93-48.93-48.93s-48.93,21.91-48.93,48.93c0,13.43,5.42,25.6,14.18,34.44-.02-.44-.04-.87-.03-1.31.03-1.41.36-2.64,1.24-3.72Zm14.19-47.25l.21-1.52c.61-1.95,1.08-3.98,1.89-5.84.52-1.18,1.36-2.3,2.46-3.09.18-.13.5-.17.58-.33.82-1.78,2.55-2.66,3.73-4.08.68-.16,1.43.19,2.06-.33,0,0,.05-.01.05-.01.76-.04,1.59.21,2.12-.63,1-.2,2.04.13,3.03-.17,1.48.24,2.97.17,4.47.16,1.57.34,3.18.58,4.71,1.05,2.23.69,4.53,1.21,6.41,2.84.62.54,1.21,1.09,1.76,1.68.88.96,1.4,2.19,2.53,3,.73.52.75,1.76,1.02,2.7.11.4.13.82.2,1.23-.02.04-.07.1-.06.13.03.09.09.16.14.24-.01.12.02.23.1.32.09.13.17.25.26.38.35,1.84.51,3.68.29,5.55-.04.32.15.68.25,1.02.15.52.31,1.13.08,1.57-.99,1.87-.6,3.9-.73,5.86-.2.11-.25.26-.15.47-.31,1.34-.88,2.58-1.2,3.93-.22.91-.57,1.85-1.2,2.66-.53.69-.99,1.47-1.23,2.43-.24.96-1.33,1.4-2.15,1.89-1.34.81-2.7,1.55-4.02,2.4-1.35.87-2.86,1.54-4.47,1.82-1.6.56-3.24.15-4.86.25,0,0-.05-.02-.05-.02-.87-.62-1.82-.37-2.76-.31-2-.55-3.96-1.17-5.68-2.44-1.96-1.44-3.99-2.78-5.2-5.06-.33-.62-.9-1.04-1.31-1.62-1.36-1.92-2.25-3.98-2.72-6.32-.51-2.5-.96-4.99-.87-7.55.32-.65.67-1.31-.09-1.91-.34-.88.67-1.52.39-2.39Z"/>
    <path class="cls-2" d="m79.98,61.04c.95,0,1.74-.36,2.38-1.07.57-.66.86-1.4.86-2.23,0-.91-.29-1.69-.86-2.31-.64-.66-1.43-.99-2.38-.99s-1.78.33-2.38.99c-.6.63-.9,1.4-.9,2.31,0,.83.3,1.57.9,2.23.64.71,1.43,1.07,2.38,1.07Z"/>
    <path class="cls-2" d="m62.56,61.04c.95,0,1.74-.36,2.38-1.07.57-.66.86-1.4.86-2.23,0-.91-.29-1.69-.86-2.31-.64-.66-1.43-.99-2.38-.99s-1.78.33-2.38.99c-.6.63-.9,1.4-.9,2.31,0,.83.3,1.57.9,2.23.64.71,1.43,1.07,2.38,1.07Z"/>
    <path class="cls-2" d="m63.71,64.81c-.19.13-.36.33-.5.62-.14.32-.2.64-.16.97.02.38.17.71.43,1,.93.93,2.18,1.67,3.73,2.23,1.39.48,2.75.73,4.09.73,1.47,0,2.84-.22,4.11-.65,1.54-.52,2.76-1.29,3.66-2.31.23-.27.35-.58.38-.94.04-.32,0-.65-.13-.97-.1-.29-.23-.5-.39-.64-.18-.13-.34-.12-.48.03-.91.93-1.98,1.66-3.23,2.18-1.24.52-2.55.78-3.91.78-1.24,0-2.62-.35-4.13-1.05-1.32-.63-2.3-1.27-2.94-1.93-.13-.16-.3-.17-.52-.03Z"/>
  </g>
  <circle class="cls-1" cx="71.32" cy="71.87" r="48.95"/>
</svg>