<?xml version="1.0" encoding="utf-8"?>
<!-- Generator: Adobe Illustrator 27.4.1, SVG Export Plug-In . SVG Version: 6.00 Build 0)  -->
<svg version="1.1" id="_레이어_1" xmlns="http://www.w3.org/2000/svg" xmlns:xlink="http://www.w3.org/1999/xlink" x="0px"
	 y="0px" viewBox="0 0 141.7 141.7" style="enable-background:new 0 0 141.7 141.7;" xml:space="preserve">
<style type="text/css">
	.st0{fill:#1DC078;}
</style>
<path class="st0" d="M81,59.7c1.1,0,2-0.4,2.7-1.2c0.6-0.7,1-1.6,1-2.5c0-1-0.3-1.9-1-2.6c-0.7-0.7-1.6-1.1-2.7-1.1s-2,0.4-2.7,1.1
	c-0.7,0.7-1,1.6-1,2.6c0,0.9,0.3,1.8,1,2.5C79.1,59.3,80,59.7,81,59.7z"/>
<path class="st0" d="M61.5,59.7c1.1,0,2-0.4,2.7-1.2c0.6-0.7,1-1.6,1-2.5c0-1-0.3-1.9-1-2.6c-0.7-0.7-1.6-1.1-2.7-1.1
	s-2,0.4-2.7,1.1c-0.7,0.7-1,1.6-1,2.6c0,0.9,0.3,1.8,1,2.5C59.5,59.3,60.4,59.7,61.5,59.7z"/>
<path class="st0" d="M62.8,63.9c-0.2,0.1-0.4,0.4-0.6,0.7C62.1,65,62,65.3,62,65.7c0,0.4,0.2,0.8,0.5,1.1c1,1,2.4,1.9,4.2,2.5
	c1.6,0.5,3.1,0.8,4.6,0.8c1.7,0,3.2-0.2,4.6-0.7c1.7-0.6,3.1-1.4,4.1-2.6c0.2-0.3,0.4-0.7,0.4-1.1s0-0.7-0.1-1.1
	c-0.1-0.3-0.2-0.6-0.4-0.7c-0.2-0.1-0.4-0.1-0.5,0c-1,1.1-2.2,1.9-3.6,2.4c-1.4,0.6-2.9,0.9-4.4,0.9c-1.4,0-2.9-0.4-4.6-1.2
	c-1.5-0.7-2.6-1.4-3.3-2.2C63.2,63.8,63,63.8,62.8,63.9L62.8,63.9z"/>
<path class="st0" d="M106.4,29.5c-9.5-8-21.8-12.8-35.2-12.8c-30.3,0-54.8,24.8-54.8,55.2c0,15.1,6.1,28.7,15.9,38.7
	c0-0.1,0-0.1,0-0.2c10,10.3,24,16.8,39.5,16.8c30.3,0,55-24.7,55-55C126.8,55,118.8,39.5,106.4,29.5z M91.7,65.1
	c-0.2,0.1-0.3,0.3-0.2,0.5c-0.3,1.5-1,2.9-1.3,4.4c-0.2,1-0.6,2.1-1.3,3c-0.6,0.8-1.1,1.7-1.4,2.7s-1.5,1.6-2.4,2.1
	c-1.5,0.9-3,1.7-4.5,2.7s-3.2,1.7-5,2c-1.8,0.6-3.6,0.2-5.4,0.3h-0.1c-1-0.7-2.1-0.4-3.1-0.3c-2.2-0.6-4.4-1.3-6.4-2.7
	c-2.2-1.6-4.5-3.1-5.8-5.7c-0.4-0.7-1-1.2-1.5-1.8c-1.5-2.2-2.5-4.5-3.1-7.1c-0.6-2.8-1.1-5.6-1-8.5c0.4-0.7,0.8-1.5-0.1-2.1
	c-0.3-1.1,0.8-1.8,0.5-2.8l0.2-1.7c0.7-2.2,1.2-4.5,2.1-6.5c0.6-1.3,1.5-2.6,2.8-3.5c0.2-0.2,0.6-0.2,0.7-0.4c0.9-2,2.9-3,4.2-4.6
	c0.8-0.2,1.6,0.2,2.3-0.4c0.8,0,1.8,0.2,2.4-0.7c1.1-0.2,2.3,0.1,3.4-0.2c1.7,0.3,3.3,0.2,5,0.2c1.8,0.4,3.6,0.7,5.3,1.2
	c2.5,0.8,5.1,1.4,7.2,3.2c0.7,0.6,1.3,1.2,2,1.9c1,1.1,1.6,2.5,2.8,3.4c0.8,0.6,0.8,2,1.1,3c0.1,0.4,0.2,0.9,0.2,1.4
	c0,0-0.1,0.1-0.1,0.2c0,0.1,0.1,0.2,0.2,0.3c0,0.1,0,0.3,0.1,0.4c0.1,0.1,0.2,0.3,0.3,0.4c0.4,2.1,0.6,4.1,0.3,6.2
	c0,0.4,0.2,0.8,0.3,1.1c0.2,0.6,0.3,1.3,0.1,1.8C91.4,60.6,91.8,62.9,91.7,65.1z M71.8,124.2c-15.5,0-29.5-6.9-39-17.7
	c0.2-0.6,0.5-1.2,0.9-1.7c0.3-0.4,0.5-0.8,0.5-1.3c-0.2-1.9,0.8-3.4,1.8-4.9c0.5-0.7,0.8-1.4,1-2.3c0.2-1.2,0.9-2.2,1.9-3.1
	c1.2-1.1,2.6-1.8,3.7-2.9c0.2-0.3,0.6-0.5,1-0.6c1.8-0.5,3.5-1,5.3-1.5c0.7,0.1,1.3,0.1,2,0c0.5,0.1,1,0.1,1.6-0.2
	c0.9-0.4,1.9-0.8,3-0.6c1.1,0.5,2.2,1.1,3.5,0.7c0.5,0.3,1,0.6,1.5,0.8c0.8,0.7,1.8,0.3,2.7,0.4c0.3,0.6,0.8,0.2,1.3,0.3
	c0.7,0.6,1.6,0.3,2.3,0.3c0.9,0,1.8,0,2.7,0c0.3,0.1,0.5,0.1,0.8,0c0.4,0,0.8,0,1.1,0c0.4,0,0.8,0,1.2,0c1.6,0.4,3.1-0.3,4.5-1
	c1.3-0.6,2.6-1.1,4-1.1c1.4,0,2.6-0.9,4-0.9c1.2,0,2.4,0.4,3.6,0.4c0.7,0,1.4-0.1,2.1-0.1c0.8,0,1.5,0,2.3,0c0,0.3,0.1,0.4,0.4,0.3
	c2,0.6,4.1,0.9,5.6,2.6c0.7,0.7,1.6,1.3,2.4,1.8c1.1,0.6,1.9,1.5,2.5,2.6c1.1,2,2.2,3.9,2.6,6.3c0.2,1.3,1.4,2.2,1.7,3.5
	c0.1,0.2,0.3,0.5,0.2,0.7c-0.3,1.3-0.1,2.5,0.3,3.7C99.4,118.2,86.3,124.2,71.8,124.2z"/>
</svg>
