<?xml version="1.0" encoding="utf-8"?>
<!-- Generator: Adobe Illustrator 27.4.1, SVG Export Plug-In . SVG Version: 6.00 Build 0)  -->
<svg version="1.1" id="레이어_1" xmlns="http://www.w3.org/2000/svg" xmlns:xlink="http://www.w3.org/1999/xlink" x="0px"
	 y="0px" viewBox="0 0 800 800" style="enable-background:new 0 0 800 800;" xml:space="preserve">
<style type="text/css">
	.st0{fill:#1DC078;}
</style>
<path class="st0" d="M675,50H125c-41.4,0-75,33.6-75,75v550c0,41.4,33.6,75,75,75h550c41.4,0,75-33.6,75-75V125
	C750,83.6,716.4,50,675,50z M625,443.8c0,10.3-8.4,18.8-18.8,18.8H462.5v143.8c0,10.3-8.4,18.8-18.8,18.8h-87.5
	c-10.3,0-18.8-8.4-18.8-18.8V462.5H193.8c-10.3,0-18.8-8.4-18.8-18.8v-87.5c0-10.3,8.4-18.8,18.8-18.8h143.8V193.7
	c0-10.3,8.4-18.8,18.8-18.8h87.5c10.3,0,18.8,8.4,18.8,18.8v143.8h143.8c10.3,0,18.8,8.4,18.8,18.8V443.8z"/>
</svg>
