<?xml version="1.0" encoding="UTF-8"?>
<svg id="_레이어_1" data-name="레이어 1" xmlns="http://www.w3.org/2000/svg" viewBox="0 0 141.73 141.73">
  <defs>
    <style>
      .cls-1 {
        fill: #1dc078;
      }
    </style>
  </defs>
  <path class="cls-1" d="m33.68,104.84c.3-.36.51-.76.47-1.27-.15-1.92.8-3.41,1.82-4.86.49-.7.77-1.45.96-2.33.25-1.18.94-2.19,1.89-3.05,1.19-1.07,2.63-1.77,3.73-2.94.25-.27.61-.49.96-.59,1.75-.51,3.51-.98,5.27-1.46.66.1,1.32.09,1.98-.04.55.09,1.03.08,1.6-.19.93-.44,1.94-.82,3.02-.58,1.13.47,2.24,1.06,3.52.69.52.28,1.03.56,1.55.84.81.66,1.77.27,2.66.4.31.56.84.23,1.26.33.73.58,1.56.27,2.35.3.9,0,1.8,0,2.7-.01.27.12.54.09.8-.04.38-.01.75-.02,1.13-.03.4,0,.8,0,1.2.01,1.64.37,3.12-.28,4.52-.97,1.28-.63,2.56-1.11,3.97-1.13,1.4-.01,2.57-.94,4.03-.91,1.23.02,2.37.43,3.58.43.71,0,1.41-.07,2.11-.11.77,0,1.54,0,2.31,0,0,0,.02.03.02.03,0,.29.13.42.42.33,1.99.57,4.06.9,5.6,2.62.66.74,1.56,1.31,2.44,1.77,1.14.6,1.91,1.47,2.53,2.62,1.07,2,2.19,3.94,2.58,6.28.21,1.27,1.42,2.16,1.69,3.49.05.25.3.52.25.73-.5,2.16.51,4,1.09,5.94,10.21-9.97,16.55-23.88,16.55-39.27,0-30.32-24.58-54.91-54.91-54.91s-54.91,24.58-54.91,54.91c0,15.07,6.08,28.72,15.91,38.65-.02-.49-.05-.98-.04-1.47.04-1.58.4-2.97,1.39-4.17Zm15.93-53.03l.23-1.71c.69-2.19,1.21-4.47,2.13-6.55.59-1.33,1.53-2.58,2.76-3.46.21-.15.56-.19.65-.38.92-2,2.86-2.99,4.19-4.58.76-.18,1.61.21,2.31-.37,0,0,.05-.01.05-.01.85-.04,1.78.24,2.38-.71,1.13-.23,2.28.14,3.4-.19,1.66.27,3.34.19,5.01.18,1.76.38,3.56.65,5.29,1.18,2.5.77,5.08,1.36,7.19,3.19.69.6,1.35,1.22,1.97,1.89.99,1.07,1.57,2.46,2.84,3.37.82.58.84,1.97,1.14,3.03.13.44.15.92.22,1.38-.02.05-.08.11-.06.15.04.1.1.18.16.27-.02.14.02.26.11.36.1.14.2.28.29.42.39,2.06.57,4.13.33,6.23-.04.36.17.76.28,1.14.17.58.35,1.27.09,1.76-1.11,2.1-.67,4.37-.82,6.58-.22.12-.29.3-.17.53-.35,1.5-.99,2.9-1.34,4.41-.24,1.02-.64,2.07-1.34,2.99-.59.77-1.11,1.65-1.38,2.73-.27,1.08-1.5,1.57-2.41,2.12-1.5.91-3.03,1.74-4.52,2.69-1.52.97-3.21,1.72-5.01,2.04-1.79.62-3.63.17-5.45.29,0,0-.05-.02-.05-.02-.97-.7-2.05-.41-3.1-.35-2.24-.62-4.44-1.31-6.37-2.74-2.2-1.62-4.48-3.12-5.83-5.67-.37-.69-1.01-1.16-1.47-1.81-1.52-2.15-2.53-4.47-3.06-7.09-.57-2.8-1.08-5.6-.97-8.48.36-.73.76-1.47-.1-2.14-.38-.99.75-1.71.44-2.68Z"/>
  <path class="cls-1" d="m81.04,59.72c1.07,0,1.96-.4,2.67-1.2.64-.74.96-1.57.96-2.5,0-1.03-.32-1.89-.96-2.59-.71-.74-1.6-1.11-2.67-1.11s-2,.37-2.67,1.11c-.68.7-1.01,1.57-1.01,2.59,0,.93.34,1.76,1.01,2.5.71.8,1.6,1.2,2.67,1.2Z"/>
  <path class="cls-1" d="m61.49,59.72c1.07,0,1.96-.4,2.67-1.2.64-.74.96-1.57.96-2.5,0-1.03-.32-1.89-.96-2.59-.71-.74-1.6-1.11-2.67-1.11s-2,.37-2.67,1.11c-.68.7-1.01,1.57-1.01,2.59,0,.93.34,1.76,1.01,2.5.71.8,1.6,1.2,2.67,1.2Z"/>
  <path class="cls-1" d="m62.78,63.94c-.21.14-.4.37-.56.69-.16.36-.22.72-.18,1.08.03.42.19.79.48,1.12,1.05,1.04,2.44,1.88,4.19,2.5,1.56.54,3.09.82,4.59.82,1.65,0,3.19-.24,4.61-.72,1.73-.58,3.1-1.45,4.11-2.59.25-.3.4-.65.42-1.05.04-.36,0-.72-.14-1.09-.11-.32-.25-.56-.44-.72-.2-.14-.38-.13-.54.03-1.02,1.05-2.23,1.86-3.62,2.44-1.4.58-2.86.87-4.39.87-1.4,0-2.94-.39-4.63-1.17-1.48-.7-2.58-1.43-3.3-2.17-.15-.18-.34-.19-.58-.03Z"/>
</svg>